<?xml version="1.0" encoding="UTF-8" standalone="no"?>
<!-- Created with Inkscape (http://www.inkscape.org/) -->

<svg
   xmlns:dc="http://purl.org/dc/elements/1.1/"
   xmlns:cc="http://creativecommons.org/ns#"
   xmlns:rdf="http://www.w3.org/1999/02/22-rdf-syntax-ns#"
   xmlns:svg="http://www.w3.org/2000/svg"
   xmlns="http://www.w3.org/2000/svg"
   xmlns:sodipodi="http://sodipodi.sourceforge.net/DTD/sodipodi-0.dtd"
   xmlns:inkscape="http://www.inkscape.org/namespaces/inkscape"
   id="svg2"
   version="1.1"
   inkscape:version="0.91 r13725"
   xml:space="preserve"
   width="116.98287"
   height="67.727501"
   viewBox="0 0 116.98287 67.727501"
   sodipodi:docname="iSIS_blanc.svg"><metadata
     id="metadata8"><rdf:RDF><cc:Work
         rdf:about=""><dc:format>image/svg+xml</dc:format><dc:type
           rdf:resource="http://purl.org/dc/dcmitype/StillImage" /><dc:title></dc:title></cc:Work></rdf:RDF></metadata><defs
     id="defs6" /><sodipodi:namedview
     pagecolor="#888888"
     bordercolor="#666666"
     borderopacity="1"
     objecttolerance="10"
     gridtolerance="10"
     guidetolerance="10"
     inkscape:pageopacity="0"
     inkscape:pageshadow="2"
     inkscape:window-width="1201"
     inkscape:window-height="667"
     id="namedview4"
     showgrid="false"
     fit-margin-top="4"
     fit-margin-left="4"
     fit-margin-right="4"
     fit-margin-bottom="4"
     inkscape:zoom="2.6424064"
     inkscape:cx="59.824123"
     inkscape:cy="33.689622"
     inkscape:window-x="0"
     inkscape:window-y="0"
     inkscape:window-maximized="0"
     inkscape:current-layer="g10" /><g
     id="g10"
     inkscape:groupmode="layer"
     inkscape:label="ink_ext_XXXXXX"
     transform="matrix(1.25,0,0,-1.25,-16.432125,76.744125)"><path
       inkscape:connector-curvature="0"
       id="path14"
       style="fill:#ffffff;fill-opacity:1;stroke:#ffffff;stroke-width:1;stroke-linecap:butt;stroke-linejoin:miter;stroke-miterlimit:4;stroke-dasharray:none;stroke-opacity:1"
       d="m 44.3672,38.0758 33.273,0" /><path
       inkscape:connector-curvature="0"
       id="path16"
       style="fill:#ffffff;fill-opacity:1;fill-rule:nonzero;stroke:none"
       d="m 44.6184,52.2715 c 0,0.1801 0.1617,0.3422 0.3429,0.3422 l 1.0258,0 c 0.1801,0 0.3422,-0.1621 0.3422,-0.3422 l 0,-6.5192 c 0,-0.1789 -0.1621,-0.341 -0.3422,-0.341 l -1.0258,0 c -0.1812,0 -0.3429,0.1621 -0.3429,0.341 l 0,6.5192 z m -0.1973,4.3211 c 0,0.5937 0.45,1.0629 1.0262,1.0629 0.5937,0 1.0621,-0.4692 1.0621,-1.0629 0,-0.5762 -0.4684,-1.0449 -1.0621,-1.0449 -0.5762,0 -1.0262,0.4687 -1.0262,1.0449" /><path
       inkscape:connector-curvature="0"
       id="path18"
       style="fill:#ffffff;fill-opacity:1;fill-rule:nonzero;stroke:none"
       d="m 50.343,47.2297 c 0.1617,0.234 0.3058,0.5039 0.4679,0.7379 0.1618,0.2347 0.4137,0.307 0.6118,0.1449 0.1082,-0.091 1.4941,-1.243 2.8812,-1.243 1.2418,0 2.034,0.7559 2.034,1.6739 0,1.0812 -0.9352,1.7652 -2.7191,2.5031 -1.836,0.775 -3.2758,1.7289 -3.2758,3.818 0,1.4039 1.0797,3.3308 3.9429,3.3308 1.8,0 3.1508,-0.9367 3.3297,-1.0629 0.1453,-0.0898 0.2903,-0.3418 0.109,-0.6121 -0.1437,-0.2156 -0.3058,-0.468 -0.45,-0.6848 -0.1437,-0.2332 -0.3777,-0.341 -0.6297,-0.1789 -0.1261,0.0719 -1.3871,0.9 -2.4312,0.9 -1.5129,0 -2.0348,-0.9543 -2.0348,-1.6211 0,-1.0261 0.793,-1.6558 2.2867,-2.2679 2.0891,-0.8461 3.8711,-1.836 3.8711,-4.034 0,-1.8723 -1.675,-3.402 -4.0148,-3.402 -2.1973,0 -3.5832,1.152 -3.8723,1.4219 -0.1617,0.1442 -0.2879,0.2699 -0.1066,0.5762" /><path
       inkscape:connector-curvature="0"
       id="path20"
       style="fill:#ffffff;fill-opacity:1;fill-rule:nonzero;stroke:none"
       d="m 62.9785,57.673 c 0,0.1797 0.1621,0.3418 0.343,0.3418 l 1.1879,0 c 0.1801,0 0.3422,-0.1621 0.3422,-0.3418 l 0,-11.9203 c 0,-0.1797 -0.1621,-0.3418 -0.3422,-0.3418 l -1.1879,0 c -0.1809,0 -0.343,0.1621 -0.343,0.3418" /><path
       inkscape:connector-curvature="0"
       id="path22"
       style="fill:#ffffff;fill-opacity:1;fill-rule:nonzero;stroke:none"
       d="m 69.6934,47.2297 c 0.1621,0.234 0.3058,0.5039 0.4679,0.7379 0.1621,0.2347 0.4141,0.307 0.6121,0.1449 0.1079,-0.091 1.4942,-1.243 2.8809,-1.243 1.2422,0 2.034,0.7559 2.034,1.6739 0,1.0812 -0.9348,1.7652 -2.7188,2.5031 -1.8359,0.775 -3.2761,1.7289 -3.2761,3.818 0,1.4039 1.08,3.3308 3.9429,3.3308 1.8,0 3.1512,-0.9367 3.3313,-1.0629 0.1437,-0.0898 0.2879,-0.3418 0.1078,-0.6121 -0.1441,-0.2156 -0.3059,-0.468 -0.45,-0.6848 -0.1441,-0.2332 -0.3781,-0.341 -0.6301,-0.1789 -0.1258,0.0719 -1.3867,0.9 -2.4308,0.9 -1.5129,0 -2.0352,-0.9543 -2.0352,-1.6211 0,-1.0261 0.793,-1.6558 2.2871,-2.2679 2.0891,-0.8461 3.8711,-1.836 3.8711,-4.034 0,-1.8723 -1.675,-3.402 -4.0152,-3.402 -2.1969,0 -3.5828,1.152 -3.8719,1.4219 -0.1621,0.1442 -0.2879,0.2699 -0.107,0.5762" /><path
       inkscape:connector-curvature="0"
       id="path24"
       style="fill:#ffffff;fill-opacity:1;fill-rule:nonzero;stroke:none"
       d="m 16.3457,31.218 c 0,0.1 0.0898,0.1886 0.1891,0.1886 l 0.6609,0 c 0.0988,0 0.1891,-0.0886 0.1891,-0.1886 l 0,-6.6172 c 0,-0.1 -0.0903,-0.1899 -0.1891,-0.1899 l -0.6609,0 c -0.0993,0 -0.1891,0.0899 -0.1891,0.1899" /><path
       inkscape:connector-curvature="0"
       id="path26"
       style="fill:#ffffff;fill-opacity:1;fill-rule:nonzero;stroke:none"
       d="m 18.9758,28.2188 c 0,0.1011 0.0898,0.1902 0.1898,0.1902 l 0.2891,0 c 0.0808,0 0.141,-0.0492 0.1609,-0.1203 l 0.1199,-0.3399 c 0.07,0.0809 0.5993,0.5602 1.3993,0.5602 1.2187,0 1.6687,-0.8594 1.6687,-1.8981 l 0,-2.0101 c 0,-0.1 -0.0898,-0.1899 -0.189,-0.1899 l -0.5707,0 c -0.109,0 -0.1891,0.0899 -0.1891,0.1899 l 0,2.0488 c 0,0.6402 -0.3109,0.9902 -0.8301,0.9902 -0.6289,0 -1.0601,-0.4601 -1.1101,-0.6 l 0,-2.439 c 0,-0.1301 -0.059,-0.1899 -0.229,-0.1899 l -0.5199,0 c -0.1,0 -0.1898,0.0899 -0.1898,0.1899" /><path
       inkscape:connector-curvature="0"
       id="path28"
       style="fill:#ffffff;fill-opacity:1;fill-rule:nonzero;stroke:none"
       d="m 23.9258,24.9309 0.2101,0.3898 c 0.0387,0.0801 0.1489,0.1102 0.2489,0.0488 0,0 0.4398,-0.259 0.93,-0.259 0.2989,0 0.4899,0.1204 0.4899,0.3403 0,0.2699 -0.2199,0.4 -0.7699,0.65 -0.62,0.2687 -1.1391,0.6488 -1.1391,1.309 0,0.5 0.4102,1.0988 1.3691,1.0988 0.559,0 0.979,-0.1801 1.1801,-0.309 0.0891,-0.0609 0.1391,-0.191 0.0797,-0.2898 l -0.1808,-0.3403 c -0.05,-0.0898 -0.1801,-0.1199 -0.2598,-0.0797 0,0 -0.4391,0.2098 -0.8192,0.2098 -0.3402,0 -0.45,-0.15 -0.45,-0.3 0,-0.2598 0.25,-0.3699 0.6391,-0.5398 0.7309,-0.32 1.3301,-0.6289 1.3301,-1.3789 0,-0.6192 -0.5891,-1.1692 -1.4793,-1.1692 -0.6699,0 -1.109,0.2391 -1.3188,0.409 -0.0601,0.0398 -0.1,0.1301 -0.0601,0.2102" /><path
       inkscape:connector-curvature="0"
       id="path30"
       style="fill:#ffffff;fill-opacity:1;fill-rule:nonzero;stroke:none"
       d="m 28.1152,27.5789 -0.4199,0 c -0.109,0 -0.189,0.0902 -0.189,0.1902 l 0,0.45 c 0,0.1098 0.08,0.1899 0.189,0.1899 l 0.4199,0 0,1.109 c 0,0.1 0.0899,0.1902 0.1899,0.1902 l 0.5703,0.0098 c 0.0988,0 0.1789,-0.0899 0.1789,-0.1899 l 0,-1.1191 1.0199,0 c 0.1102,0 0.1899,-0.0801 0.1899,-0.1899 l 0,-0.45 c 0,-0.1 -0.0797,-0.1902 -0.1899,-0.1902 l -1.0199,0 0,-1.9789 c 0,-0.3391 0.1301,-0.3988 0.3211,-0.3988 0.2098,0 0.4887,0.1187 0.609,0.1801 0.1297,0.0589 0.191,0 0.2308,-0.0903 l 0.1789,-0.441 c 0.05,-0.109 0.0102,-0.1891 -0.0898,-0.2391 -0.1,-0.0597 -0.6902,-0.3 -1.1691,-0.3 -0.7899,0 -1.02,0.4801 -1.02,1.1903" /><path
       inkscape:connector-curvature="0"
       id="path32"
       style="fill:#ffffff;fill-opacity:1;fill-rule:nonzero;stroke:none"
       d="m 31.4258,28.2188 c 0,0.1011 0.0898,0.1902 0.1898,0.1902 l 0.5703,0 c 0.0989,0 0.1899,-0.0891 0.1899,-0.1902 l 0,-3.618 c 0,-0.1 -0.091,-0.1899 -0.1899,-0.1899 l -0.5703,0 c -0.1,0 -0.1898,0.0899 -0.1898,0.1899 l 0,3.618 z m -0.109,2.3992 c 0,0.3297 0.25,0.5886 0.5691,0.5886 0.3297,0 0.5899,-0.2589 0.5899,-0.5886 0,-0.3203 -0.2602,-0.5801 -0.5899,-0.5801 -0.3191,0 -0.5691,0.2598 -0.5691,0.5801" /><path
       inkscape:connector-curvature="0"
       id="path34"
       style="fill:#ffffff;fill-opacity:1;fill-rule:nonzero;stroke:none"
       d="m 34.0449,27.5789 -0.4199,0 c -0.109,0 -0.1891,0.0902 -0.1891,0.1902 l 0,0.45 c 0,0.1098 0.0801,0.1899 0.1891,0.1899 l 0.4199,0 0,1.109 c 0,0.1 0.0899,0.1902 0.1899,0.1902 l 0.5703,0.0098 c 0.0988,0 0.1789,-0.0899 0.1789,-0.1899 l 0,-1.1191 1.0199,0 c 0.1102,0 0.1899,-0.0801 0.1899,-0.1899 l 0,-0.45 c 0,-0.1 -0.0797,-0.1902 -0.1899,-0.1902 l -1.0199,0 0,-1.9789 c 0,-0.3391 0.1301,-0.3988 0.3211,-0.3988 0.2097,0 0.4887,0.1187 0.609,0.1801 0.1297,0.0589 0.191,0 0.2308,-0.0903 l 0.1789,-0.441 c 0.05,-0.109 0.0102,-0.1891 -0.0898,-0.2391 -0.1,-0.0597 -0.6902,-0.3 -1.1692,-0.3 -0.7898,0 -1.0199,0.4801 -1.0199,1.1903" /><path
       inkscape:connector-curvature="0"
       id="path36"
       style="fill:#ffffff;fill-opacity:1;fill-rule:nonzero;stroke:none"
       d="m 37.2961,28.2188 c 0,0.1011 0.0898,0.1902 0.1887,0.1902 l 0.5711,0 c 0.0992,0 0.189,-0.0891 0.189,-0.1902 l 0,-2.0489 c 0,-0.6492 0.3102,-0.9992 0.8199,-0.9992 0.5891,0 0.9602,0.4801 0.9903,0.659 l 0,2.3891 c 0,0.1601 0.0789,0.1902 0.2199,0.1902 l 0.5188,0 c 0.1,0 0.1902,-0.0891 0.1902,-0.1902 l 0,-3.618 c 0,-0.1 -0.0902,-0.1899 -0.1902,-0.1899 l -0.2797,0 c -0.1,0 -0.15,0.0707 -0.1801,0.161 l -0.1,0.2898 c -0.0891,-0.0808 -0.509,-0.55 -1.3192,-0.55 -1.1988,0 -1.6187,0.8492 -1.6187,1.8879" /><path
       inkscape:connector-curvature="0"
       id="path38"
       style="fill:#ffffff;fill-opacity:1;fill-rule:nonzero;stroke:none"
       d="m 42.6543,27.5789 -0.4199,0 c -0.109,0 -0.1891,0.0902 -0.1891,0.1902 l 0,0.45 c 0,0.1098 0.0801,0.1899 0.1891,0.1899 l 0.4199,0 0,1.109 c 0,0.1 0.0898,0.1902 0.1898,0.1902 l 0.5704,0.0098 c 0.0988,0 0.1789,-0.0899 0.1789,-0.1899 l 0,-1.1191 1.0199,0 c 0.1101,0 0.1898,-0.0801 0.1898,-0.1899 l 0,-0.45 c 0,-0.1 -0.0797,-0.1902 -0.1898,-0.1902 l -1.0199,0 0,-1.9789 c 0,-0.3391 0.13,-0.3988 0.3211,-0.3988 0.2097,0 0.4886,0.1187 0.6089,0.1801 0.1297,0.0589 0.1911,0 0.2309,-0.0903 l 0.1789,-0.441 c 0.05,-0.109 0.0102,-0.1891 -0.0898,-0.2391 -0.1,-0.0597 -0.6903,-0.3 -1.1692,-0.3 -0.7898,0 -1.0199,0.4801 -1.0199,1.1903" /><path
       inkscape:connector-curvature="0"
       id="path40"
       style="fill:#ffffff;fill-opacity:1;fill-rule:nonzero;stroke:none"
       d="m 48.584,26.8496 c -0.0301,0.4789 -0.4301,0.8899 -0.9199,0.8899 -0.5403,0 -0.959,-0.3899 -1.0192,-0.8899 l 1.9391,0 z m -0.9102,1.659 c 1.0403,0 1.8391,-0.7789 1.8391,-1.8481 0,-0.071 -0.0098,-0.2007 -0.0199,-0.271 -0.0102,-0.1 -0.0899,-0.17 -0.1801,-0.17 l -2.718,0 c 0.0301,-0.539 0.5,-1.0687 1.1492,-1.0687 0.3598,0 0.6899,0.1597 0.8899,0.2898 0.1199,0.0699 0.189,0.1102 0.2691,0.0102 l 0.2809,-0.3801 c 0.0691,-0.0793 0.0988,-0.159 -0.0211,-0.2602 -0.2899,-0.2488 -0.809,-0.4988 -1.4777,-0.4988 -1.2102,0 -2.0102,0.9488 -2.0102,2.0988 0,1.1282 0.8,2.0981 1.9988,2.0981" /><path
       inkscape:connector-curvature="0"
       id="path42"
       style="fill:#ffffff;fill-opacity:1;fill-rule:nonzero;stroke:none"
       d="m 54.6145,25.1711 c 0.6289,0 1.1289,0.5598 1.1289,1.2488 0,0.6699 -0.5,1.2199 -1.1289,1.2199 -0.6301,0 -1.1301,-0.55 -1.1301,-1.2199 0,-0.689 0.5,-1.2488 1.1301,-1.2488 m 0,3.3379 c 1.1187,0 2.0187,-0.959 2.0187,-2.0891 0,-1.1488 -0.9,-2.1082 -2.0187,-2.1082 -1.1204,0 -2.0204,0.9594 -2.0204,2.1082 0,1.1301 0.9,2.0891 2.0204,2.0891" /><path
       inkscape:connector-curvature="0"
       id="path44"
       style="fill:#ffffff;fill-opacity:1;fill-rule:nonzero;stroke:none"
       d="m 58.0559,27.5789 -0.4711,0 c -0.109,0 -0.1891,0.0902 -0.1891,0.1902 l 0,0.45 c 0,0.1098 0.0801,0.1899 0.1891,0.1899 l 0.4711,0 0,1.239 c 0,1.2403 0.7386,1.859 1.6976,1.859 0.5403,0 0.9602,-0.2398 1.1403,-0.4 0.0699,-0.059 0.08,-0.1597 0.0398,-0.2289 l -0.25,-0.45 c -0.05,-0.0898 -0.1488,-0.1 -0.25,-0.0308 -0.1301,0.0898 -0.4199,0.241 -0.659,0.241 -0.4398,0 -0.75,-0.3203 -0.75,-0.9903 l 0,-1.239 1.0801,0 c 0.109,0 0.1891,-0.0801 0.1891,-0.1899 l 0,-0.45 c 0,-0.1 -0.0801,-0.1902 -0.1891,-0.1902 l -1.0801,0 0,-2.9789 c 0,-0.0988 -0.0898,-0.1891 -0.1898,-0.1891 l -0.5903,0 c -0.0988,0 -0.1886,0.0903 -0.1886,0.1891" /><path
       inkscape:connector-curvature="0"
       id="path46"
       style="fill:#ffffff;fill-opacity:1;fill-rule:nonzero;stroke:none"
       d="m 63.3848,25.4211 c 0.0902,0.1297 0.1699,0.2789 0.2601,0.409 0.0899,0.1297 0.2301,0.1699 0.3399,0.0797 0.0601,-0.05 0.83,-0.6887 1.5992,-0.6887 0.6898,0 1.1289,0.4199 1.1289,0.9289 0,0.6 -0.5191,0.9801 -1.509,1.3891 -1.0191,0.4297 -1.8191,0.9597 -1.8191,2.1187 0,0.7801 0.6,1.8492 2.189,1.8492 0.9989,0 1.7489,-0.5203 1.8489,-0.589 0.08,-0.0512 0.1601,-0.1903 0.0601,-0.3403 -0.0801,-0.1199 -0.1699,-0.2597 -0.25,-0.3797 -0.0789,-0.13 -0.2101,-0.1902 -0.35,-0.1 -0.0691,0.0399 -0.7691,0.5 -1.3488,0.5 -0.8391,0 -1.1293,-0.53 -1.1293,-0.9 0,-0.5691 0.4391,-0.9203 1.2691,-1.2589 1.159,-0.4703 2.1489,-1.0192 2.1489,-2.2391 0,-1.0391 -0.9297,-1.8883 -2.2289,-1.8883 -1.22,0 -1.9891,0.6391 -2.1481,0.7891 -0.091,0.0801 -0.1609,0.15 -0.0609,0.3203" /><path
       inkscape:connector-curvature="0"
       id="path48"
       style="fill:#ffffff;fill-opacity:1;fill-rule:nonzero;stroke:none"
       d="m 68.8945,28.2188 c 0,0.1011 0.0899,0.1902 0.1899,0.1902 l 0.2801,0 c 0.0902,0 0.1402,-0.0492 0.1699,-0.1203 l 0.1101,-0.3399 c 0.0899,0.0899 0.55,0.5602 1.3192,0.5602 0.5789,0 0.9988,-0.2293 1.2886,-0.6402 0.1114,0.1109 0.6903,0.6402 1.45,0.6402 1.2192,0 1.6493,-0.8594 1.6493,-1.8981 l 0,-2.0101 c 0,-0.1 -0.0801,-0.1899 -0.1903,-0.1899 l -0.5597,0 c -0.1102,0 -0.1891,0.0899 -0.1891,0.1899 l 0,2.0488 c 0,0.6301 -0.2898,0.9902 -0.8301,0.9902 -0.6097,0 -0.959,-0.43 -1.0301,-0.4902 0.0204,-0.0898 0.0301,-0.2797 0.0301,-0.4797 l 0,-2.0691 c 0,-0.1 -0.089,-0.1899 -0.1898,-0.1899 l -0.5289,0 c -0.1114,0 -0.191,0.0899 -0.191,0.1899 l 0,2.0488 c 0,0.6402 -0.2891,0.9902 -0.8493,0.9902 -0.6,0 -0.9398,-0.4699 -0.9898,-0.6 l 0,-2.439 c 0,-0.1 -0.0891,-0.1899 -0.1891,-0.1899 l -0.5601,0 c -0.1,0 -0.1899,0.0899 -0.1899,0.1899" /><path
       inkscape:connector-curvature="0"
       id="path50"
       style="fill:#ffffff;fill-opacity:1;fill-rule:nonzero;stroke:none"
       d="m 77.9043,25.0203 c 0.3988,0 0.7789,0.3 0.8988,0.5 l 0,0.6402 c -0.059,0.0399 -0.3386,0.1598 -0.6988,0.1598 -0.4789,0 -0.809,-0.25 -0.809,-0.6598 0,-0.3601 0.2391,-0.6402 0.609,-0.6402 m 0.1199,1.9192 c 0.4199,0 0.7891,-0.12 0.7891,-0.12 0.0109,0.6301 -0.109,0.8801 -0.6192,0.8801 -0.4597,0 -0.9089,-0.1199 -1.1187,-0.1801 -0.1199,-0.03 -0.191,0.05 -0.2199,0.1602 l -0.0801,0.3687 c -0.0301,0.1301 0.0398,0.2012 0.1301,0.2313 0.0687,0.0289 0.6398,0.2289 1.3789,0.2289 1.2789,0 1.3988,-0.7789 1.3988,-1.7789 l 0,-2.1293 c 0,-0.1 -0.0898,-0.1891 -0.1898,-0.1891 l -0.2789,0 c -0.0903,0 -0.1301,0.0403 -0.1704,0.1391 l -0.1,0.2711 c -0.2207,-0.2102 -0.6097,-0.5102 -1.2289,-0.5102 -0.75,0 -1.2898,0.5102 -1.2898,1.3391 0,0.7293 0.5801,1.2891 1.5988,1.2891" /><path
       inkscape:connector-curvature="0"
       id="path52"
       style="fill:#ffffff;fill-opacity:1;fill-rule:nonzero;stroke:none"
       d="m 81.0535,28.2188 c 0,0.1011 0.0903,0.1902 0.1903,0.1902 l 0.289,0 c 0.0707,0 0.1508,-0.0602 0.1699,-0.1402 l 0.111,-0.3399 c 0.0699,0.1008 0.439,0.5801 1.1691,0.5801 0.3801,0 0.8399,-0.1 0.7301,-0.3703 l -0.2402,-0.4891 c -0.05,-0.1109 -0.15,-0.1297 -0.2399,-0.0898 -0.0601,0.03 -0.2101,0.0691 -0.3402,0.0691 -0.5789,0 -0.8598,-0.4191 -0.9,-0.4891 l 0,-2.539 c 0,-0.1699 -0.109,-0.1899 -0.2688,-0.1899 l -0.48,0 c -0.1,0 -0.1903,0.0899 -0.1903,0.1899" /><path
       inkscape:connector-curvature="0"
       id="path54"
       style="fill:#ffffff;fill-opacity:1;fill-rule:nonzero;stroke:none"
       d="m 84.7844,27.5789 -0.4203,0 c -0.109,0 -0.1887,0.0902 -0.1887,0.1902 l 0,0.45 c 0,0.1098 0.0797,0.1899 0.1887,0.1899 l 0.4203,0 0,1.109 c 0,0.1 0.0898,0.1902 0.1898,0.1902 l 0.5699,0.0098 c 0.0993,0 0.1789,-0.0899 0.1789,-0.1899 l 0,-1.1191 1.0204,0 c 0.1097,0 0.1898,-0.0801 0.1898,-0.1899 l 0,-0.45 c 0,-0.1 -0.0801,-0.1902 -0.1898,-0.1902 l -1.0204,0 0,-1.9789 c 0,-0.3391 0.1301,-0.3988 0.3211,-0.3988 0.2102,0 0.4891,0.1187 0.609,0.1801 0.1301,0.0589 0.191,0 0.2313,-0.0903 l 0.1789,-0.441 c 0.05,-0.109 0.0097,-0.1891 -0.0903,-0.2391 -0.1,-0.0597 -0.6898,-0.3 -1.1687,-0.3 -0.7902,0 -1.0199,0.4801 -1.0199,1.1903" /><path
       inkscape:connector-curvature="0"
       id="path56"
       style="fill:#ffffff;fill-opacity:1;fill-rule:nonzero;stroke:none"
       d="m 91.5938,25.0203 c 0.3992,0 0.7789,0.3 0.8992,0.5 l 0,0.6402 c -0.059,0.0399 -0.3391,0.1598 -0.6992,0.1598 -0.479,0 -0.809,-0.25 -0.809,-0.6598 0,-0.3601 0.239,-0.6402 0.609,-0.6402 m 0.1199,1.9192 c 0.4203,0 0.789,-0.12 0.789,-0.12 0.011,0.6301 -0.1089,0.8801 -0.6187,0.8801 -0.4602,0 -0.909,-0.1199 -1.1192,-0.1801 -0.1199,-0.03 -0.191,0.05 -0.2199,0.1602 l -0.0801,0.3687 c -0.03,0.1301 0.0399,0.2012 0.1301,0.2313 0.0688,0.0289 0.6399,0.2289 1.3789,0.2289 1.2789,0 1.3989,-0.7789 1.3989,-1.7789 l 0,-2.1293 c 0,-0.1 -0.0899,-0.1891 -0.1899,-0.1891 l -0.2789,0 c -0.0902,0 -0.1301,0.0403 -0.1699,0.1391 l -0.1,0.2711 c -0.2211,-0.2102 -0.6102,-0.5102 -1.2293,-0.5102 -0.75,0 -1.2899,0.5102 -1.2899,1.3391 0,0.7293 0.5801,1.2891 1.5989,1.2891" /><path
       inkscape:connector-curvature="0"
       id="path58"
       style="fill:#ffffff;fill-opacity:1;fill-rule:nonzero;stroke:none"
       d="m 94.7441,28.2188 c 0,0.1011 0.0899,0.1902 0.1899,0.1902 l 0.289,0 c 0.0813,0 0.1411,-0.0492 0.161,-0.1203 l 0.1203,-0.3399 c 0.0699,0.0809 0.5988,0.5602 1.3988,0.5602 1.2192,0 1.6692,-0.8594 1.6692,-1.8981 l 0,-2.0101 c 0,-0.1 -0.0903,-0.1899 -0.1891,-0.1899 l -0.5711,0 c -0.109,0 -0.1891,0.0899 -0.1891,0.1899 l 0,2.0488 c 0,0.6402 -0.3109,0.9902 -0.83,0.9902 -0.6289,0 -1.0598,-0.4601 -1.1098,-0.6 l 0,-2.439 c 0,-0.1301 -0.059,-0.1899 -0.2289,-0.1899 l -0.5203,0 c -0.1,0 -0.1899,0.0899 -0.1899,0.1899" /><path
       inkscape:connector-curvature="0"
       id="path60"
       style="fill:#ffffff;fill-opacity:1;fill-rule:nonzero;stroke:none"
       d="m 101.633,25.1711 c 0.609,0 0.899,0.4887 0.949,0.6 l 0,1.6289 c 0,0 -0.349,0.2398 -0.869,0.2398 -0.67,0 -1.14,-0.55 -1.14,-1.23 0,-0.67 0.42,-1.2387 1.06,-1.2387 m -0.02,3.3379 c 0.51,0 0.87,-0.1902 0.959,-0.2199 l 0,2.9289 c 0,0.0988 0.09,0.189 0.191,0.189 l 0.579,0 c 0.101,0 0.19,-0.0902 0.19,-0.189 l 0,-6.6172 c 0,-0.1 -0.089,-0.1899 -0.19,-0.1899 l -0.3,0 c -0.09,0 -0.149,0.0711 -0.18,0.17 l -0.08,0.2902 c 0,0 -0.479,-0.5594 -1.269,-0.5594 -1.06,0 -1.8692,0.9492 -1.8692,2.0981 0,1.1691 0.8602,2.0992 1.9692,2.0992" /><path
       inkscape:connector-curvature="0"
       id="path62"
       style="fill:#ffffff;fill-opacity:1;fill-rule:nonzero;stroke:none"
       d="m 27.2996,14.4211 c 0.0902,0.1297 0.1703,0.2789 0.2602,0.409 0.0898,0.1297 0.23,0.1699 0.3398,0.0797 0.0602,-0.05 0.8301,-0.6887 1.5992,-0.6887 0.6899,0 1.1289,0.4199 1.1289,0.9289 0,0.6 -0.5187,0.9801 -1.5089,1.3891 -1.0192,0.4297 -1.8192,0.9597 -1.8192,2.1187 0,0.7801 0.6,1.8492 2.1891,1.8492 0.9992,0 1.7492,-0.5203 1.8492,-0.589 0.0801,-0.0512 0.1598,-0.1903 0.0598,-0.3403 -0.0797,-0.1199 -0.17,-0.2597 -0.25,-0.3797 -0.0789,-0.13 -0.209,-0.1902 -0.35,-0.1 -0.0688,0.0399 -0.7688,0.5 -1.3489,0.5 -0.839,0 -1.1289,-0.53 -1.1289,-0.9 0,-0.5691 0.4391,-0.9203 1.2688,-1.2589 1.159,-0.4703 2.1492,-1.0192 2.1492,-2.2391 0,-1.0391 -0.9301,-1.8883 -2.2289,-1.8883 -1.2203,0 -1.9891,0.6391 -2.1481,0.7891 -0.091,0.0801 -0.1613,0.15 -0.0613,0.3203" /><path
       inkscape:connector-curvature="0"
       id="path64"
       style="fill:#ffffff;fill-opacity:1;fill-rule:nonzero;stroke:none"
       d="m 35.5293,15.8496 c -0.0301,0.4789 -0.4301,0.8899 -0.9199,0.8899 -0.5403,0 -0.959,-0.3899 -1.0192,-0.8899 l 1.9391,0 z m -0.9102,1.659 c 1.0403,0 1.8391,-0.7789 1.8391,-1.8481 0,-0.071 -0.0098,-0.2007 -0.0199,-0.271 -0.0102,-0.1 -0.0899,-0.17 -0.1801,-0.17 l -2.718,0 c 0.0301,-0.539 0.5,-1.0687 1.1493,-1.0687 0.3597,0 0.6898,0.1597 0.8898,0.2898 0.1199,0.0699 0.1891,0.1102 0.2691,0.0102 l 0.2809,-0.3801 c 0.0691,-0.0793 0.0988,-0.159 -0.0211,-0.2602 -0.2898,-0.2488 -0.809,-0.4988 -1.4777,-0.4988 -1.2102,0 -2.0102,0.9488 -2.0102,2.0988 0,1.1282 0.8,2.0981 1.9988,2.0981" /><path
       inkscape:connector-curvature="0"
       id="path66"
       style="fill:#ffffff;fill-opacity:1;fill-rule:nonzero;stroke:none"
       d="m 39.3281,17.509 c 0.6102,0 1.0801,-0.25 1.4489,-0.7102 0.071,-0.0898 0.0511,-0.209 -0.0399,-0.2789 l -0.3289,-0.3 c -0.1199,-0.1101 -0.1902,-0.0301 -0.2699,0.0399 -0.1801,0.1992 -0.4703,0.38 -0.7992,0.38 -0.6508,0 -1.1602,-0.55 -1.1602,-1.23 0,-0.6891 0.5,-1.2391 1.1492,-1.2391 0.5102,0 0.7199,0.2602 0.9301,0.4602 0.0898,0.0898 0.1789,0.0898 0.2699,0.0199 l 0.2699,-0.2199 c 0.0993,-0.0801 0.1391,-0.1801 0.07,-0.2801 -0.32,-0.5102 -0.8598,-0.8391 -1.55,-0.8391 -1.1188,0 -2.0891,0.8891 -2.0891,2.0891 0,1.1781 0.9902,2.1082 2.0992,2.1082" /><path
       inkscape:connector-curvature="0"
       id="path68"
       style="fill:#ffffff;fill-opacity:1;fill-rule:nonzero;stroke:none"
       d="m 41.9199,17.2188 c 0,0.1011 0.0899,0.1902 0.1891,0.1902 l 0.5711,0 c 0.0988,0 0.1887,-0.0891 0.1887,-0.1902 l 0,-2.0489 c 0,-0.6492 0.3101,-0.9992 0.8203,-0.9992 0.5886,0 0.9597,0.4801 0.9898,0.659 l 0,2.3891 c 0,0.1601 0.0789,0.1902 0.2199,0.1902 l 0.5192,0 c 0.1,0 0.1898,-0.0891 0.1898,-0.1902 l 0,-3.618 c 0,-0.1 -0.0898,-0.1899 -0.1898,-0.1899 l -0.2801,0 c -0.1,0 -0.15,0.0707 -0.1801,0.161 l -0.1,0.2898 c -0.089,-0.0808 -0.509,-0.55 -1.3187,-0.55 -1.1993,0 -1.6192,0.8492 -1.6192,1.8879" /><path
       inkscape:connector-curvature="0"
       id="path70"
       style="fill:#ffffff;fill-opacity:1;fill-rule:nonzero;stroke:none"
       d="m 47.0195,17.2188 c 0,0.1011 0.0899,0.1902 0.1899,0.1902 l 0.289,0 c 0.0711,0 0.1512,-0.0602 0.17,-0.1402 l 0.1113,-0.3399 c 0.0699,0.1008 0.4387,0.5801 1.1687,0.5801 0.3801,0 0.8403,-0.1 0.7301,-0.3703 l -0.2398,-0.4891 c -0.05,-0.1109 -0.15,-0.1297 -0.2403,-0.0898 -0.0597,0.03 -0.2097,0.0691 -0.3398,0.0691 -0.5789,0 -0.8602,-0.4191 -0.9,-0.4891 l 0,-2.539 c 0,-0.1699 -0.109,-0.1899 -0.2691,-0.1899 l -0.4801,0 c -0.1,0 -0.1899,0.0899 -0.1899,0.1899" /><path
       inkscape:connector-curvature="0"
       id="path72"
       style="fill:#ffffff;fill-opacity:1;fill-rule:nonzero;stroke:none"
       d="m 53.0781,15.8496 c -0.0301,0.4789 -0.4301,0.8899 -0.9199,0.8899 -0.5402,0 -0.959,-0.3899 -1.0191,-0.8899 l 1.939,0 z m -0.9101,1.659 c 1.0402,0 1.839,-0.7789 1.839,-1.8481 0,-0.071 -0.0097,-0.2007 -0.0199,-0.271 -0.0101,-0.1 -0.0898,-0.17 -0.1801,-0.17 l -2.7179,0 c 0.03,-0.539 0.5,-1.0687 1.1492,-1.0687 0.3597,0 0.6898,0.1597 0.8898,0.2898 0.1199,0.0699 0.1891,0.1102 0.2692,0.0102 l 0.2808,-0.3801 c 0.0692,-0.0793 0.0989,-0.159 -0.0211,-0.2602 -0.2898,-0.2488 -0.809,-0.4988 -1.4777,-0.4988 -1.2102,0 -2.0102,0.9488 -2.0102,2.0988 0,1.1282 0.8,2.0981 1.9989,2.0981" /><path
       inkscape:connector-curvature="0"
       id="path74"
       style="fill:#ffffff;fill-opacity:1;fill-rule:nonzero;stroke:none"
       d="m 56.7781,14.1711 c 0.6094,0 0.8992,0.4887 0.9492,0.6 l 0,1.6289 c 0,0 -0.3492,0.2398 -0.8691,0.2398 -0.6699,0 -1.1398,-0.55 -1.1398,-1.23 0,-0.67 0.4199,-1.2387 1.0597,-1.2387 m -0.0199,3.3379 c 0.5102,0 0.8699,-0.1902 0.959,-0.2199 l 0,2.9289 c 0,0.0988 0.0902,0.189 0.191,0.189 l 0.5793,0 c 0.1,0 0.1898,-0.0902 0.1898,-0.189 l 0,-6.6172 c 0,-0.1 -0.0898,-0.1899 -0.1898,-0.1899 l -0.3,0 c -0.0902,0 -0.1492,0.0711 -0.1801,0.17 l -0.0801,0.2902 c 0,0 -0.4789,-0.5594 -1.2691,-0.5594 -1.0598,0 -1.8687,0.9492 -1.8687,2.0981 0,1.1691 0.8597,2.0992 1.9687,2.0992" /><path
       inkscape:connector-curvature="0"
       id="path76"
       style="fill:#ffffff;fill-opacity:1;fill-rule:nonzero;stroke:none"
       d="m 62.2695,14.4211 c 0.0899,0.1297 0.17,0.2789 0.2602,0.409 0.0898,0.1297 0.2297,0.1699 0.3398,0.0797 0.0602,-0.05 0.8301,-0.6887 1.5989,-0.6887 0.6902,0 1.1293,0.4199 1.1293,0.9289 0,0.6 -0.5192,0.9801 -1.509,1.3891 -1.0192,0.4297 -1.8192,0.9597 -1.8192,2.1187 0,0.7801 0.6,1.8492 2.1891,1.8492 0.9988,0 1.7488,-0.5203 1.8488,-0.589 0.0801,-0.0512 0.1602,-0.1903 0.0602,-0.3403 -0.0801,-0.1199 -0.1699,-0.2597 -0.25,-0.3797 -0.0789,-0.13 -0.2102,-0.1902 -0.35,-0.1 -0.0692,0.0399 -0.7692,0.5 -1.3492,0.5 -0.8387,0 -1.1289,-0.53 -1.1289,-0.9 0,-0.5691 0.439,-0.9203 1.2691,-1.2589 1.159,-0.4703 2.1488,-1.0192 2.1488,-2.2391 0,-1.0391 -0.9301,-1.8883 -2.2289,-1.8883 -1.2199,0 -1.989,0.6391 -2.148,0.7891 -0.091,0.0801 -0.161,0.15 -0.061,0.3203" /><path
       inkscape:connector-curvature="0"
       id="path78"
       style="fill:#ffffff;fill-opacity:1;fill-rule:nonzero;stroke:none"
       d="m 67.1816,17.1492 c -0.0609,0.1301 0.02,0.2602 0.17,0.2602 l 0.6589,0 c 0.0602,0 0.1403,-0.05 0.17,-0.111 l 1.239,-2.6582 0.0102,0 1.1988,2.6582 c 0.0403,0.0899 0.1199,0.111 0.2102,0.111 l 0.5711,0 c 0.159,0 0.2386,-0.1301 0.1687,-0.2602 l -3.0578,-6.6168 c -0.0301,-0.0601 -0.0902,-0.1191 -0.1699,-0.1191 l -0.6,0 c -0.15,0 -0.2403,0.1301 -0.1703,0.2691 l 1.339,2.868" /><path
       inkscape:connector-curvature="0"
       id="path80"
       style="fill:#ffffff;fill-opacity:1;fill-rule:nonzero;stroke:none"
       d="m 72.2207,13.9309 0.2102,0.3898 c 0.0386,0.0801 0.1488,0.1102 0.2488,0.0488 0,0 0.4398,-0.259 0.9301,-0.259 0.2988,0 0.4898,0.1204 0.4898,0.3403 0,0.2699 -0.2199,0.4 -0.7699,0.65 -0.6199,0.2687 -1.1391,0.6488 -1.1391,1.309 0,0.5 0.4102,1.0988 1.3692,1.0988 0.559,0 0.9789,-0.1801 1.18,-0.309 0.0887,-0.0609 0.1387,-0.191 0.0797,-0.2898 l -0.1808,-0.3403 c -0.05,-0.0898 -0.1801,-0.1199 -0.2602,-0.0797 0,0 -0.4387,0.2098 -0.8187,0.2098 -0.3403,0 -0.45,-0.15 -0.45,-0.3 0,-0.2598 0.25,-0.3699 0.639,-0.5398 0.7309,-0.32 1.3297,-0.6289 1.3297,-1.3789 0,-0.6192 -0.5887,-1.1692 -1.4789,-1.1692 -0.6699,0 -1.109,0.2391 -1.3187,0.409 -0.0602,0.0398 -0.1,0.1301 -0.0602,0.2102" /><path
       inkscape:connector-curvature="0"
       id="path82"
       style="fill:#ffffff;fill-opacity:1;fill-rule:nonzero;stroke:none"
       d="m 76.4102,16.5789 -0.42,0 c -0.1089,0 -0.189,0.0902 -0.189,0.1902 l 0,0.45 c 0,0.1098 0.0801,0.1899 0.189,0.1899 l 0.42,0 0,1.109 c 0,0.1 0.0902,0.1902 0.1902,0.1902 l 0.5699,0.0098 c 0.0988,0 0.1789,-0.0899 0.1789,-0.1899 l 0,-1.1191 1.0199,0 c 0.1102,0 0.1903,-0.0801 0.1903,-0.1899 l 0,-0.45 c 0,-0.1 -0.0801,-0.1902 -0.1903,-0.1902 l -1.0199,0 0,-1.9789 c 0,-0.3391 0.1301,-0.3988 0.3211,-0.3988 0.2098,0 0.4891,0.1187 0.609,0.1801 0.1301,0.0589 0.191,0 0.2309,-0.0903 l 0.1789,-0.441 c 0.05,-0.109 0.0101,-0.1891 -0.0899,-0.2391 -0.1,-0.0597 -0.6898,-0.3 -1.1691,-0.3 -0.7899,0 -1.0199,0.4801 -1.0199,1.1903" /><path
       inkscape:connector-curvature="0"
       id="path84"
       style="fill:#ffffff;fill-opacity:1;fill-rule:nonzero;stroke:none"
       d="m 82.3398,15.8496 c -0.03,0.4789 -0.43,0.8899 -0.9199,0.8899 -0.5402,0 -0.959,-0.3899 -1.0191,-0.8899 l 1.939,0 z m -0.9101,1.659 c 1.0402,0 1.8391,-0.7789 1.8391,-1.8481 0,-0.071 -0.0098,-0.2007 -0.02,-0.271 -0.0101,-0.1 -0.0898,-0.17 -0.18,-0.17 l -2.718,0 c 0.0301,-0.539 0.5,-1.0687 1.1488,-1.0687 0.3602,0 0.6902,0.1597 0.8902,0.2898 0.12,0.0699 0.1891,0.1102 0.2692,0.0102 l 0.2808,-0.3801 c 0.0692,-0.0793 0.0989,-0.159 -0.021,-0.2602 -0.2899,-0.2488 -0.809,-0.4988 -1.4782,-0.4988 -1.2097,0 -2.0097,0.9488 -2.0097,2.0988 0,1.1282 0.8,2.0981 1.9988,2.0981" /><path
       inkscape:connector-curvature="0"
       id="path86"
       style="fill:#ffffff;fill-opacity:1;fill-rule:nonzero;stroke:none"
       d="m 84.3398,17.2188 c 0,0.1011 0.0899,0.1902 0.1899,0.1902 l 0.2801,0 c 0.0898,0 0.1398,-0.0492 0.1699,-0.1203 l 0.1101,-0.3399 c 0.0899,0.0899 0.55,0.5602 1.3192,0.5602 0.5789,0 0.9988,-0.2293 1.2887,-0.6402 0.1113,0.1109 0.6902,0.6402 1.45,0.6402 1.2191,0 1.6492,-0.8594 1.6492,-1.8981 l 0,-2.0101 c 0,-0.1 -0.0801,-0.1899 -0.1903,-0.1899 l -0.5597,0 c -0.1102,0 -0.1891,0.0899 -0.1891,0.1899 l 0,2.0488 c 0,0.6301 -0.2898,0.9902 -0.8301,0.9902 -0.6097,0 -0.9589,-0.43 -1.03,-0.4902 0.0203,-0.0898 0.03,-0.2797 0.03,-0.4797 l 0,-2.0691 c 0,-0.1 -0.089,-0.1899 -0.1898,-0.1899 l -0.5289,0 c -0.1113,0 -0.191,0.0899 -0.191,0.1899 l 0,2.0488 c 0,0.6402 -0.2891,0.9902 -0.8492,0.9902 -0.6,0 -0.9399,-0.4699 -0.9899,-0.6 l 0,-2.439 c 0,-0.1 -0.0891,-0.1899 -0.1891,-0.1899 l -0.5601,0 c -0.1,0 -0.1899,0.0899 -0.1899,0.1899" /><path
       inkscape:connector-curvature="0"
       id="path88"
       style="fill:#ffffff;fill-opacity:1;fill-rule:nonzero;stroke:none"
       d="m 91.9211,13.9309 0.2098,0.3898 c 0.039,0.0801 0.1492,0.1102 0.2492,0.0488 0,0 0.4398,-0.259 0.9297,-0.259 0.2992,0 0.4902,0.1204 0.4902,0.3403 0,0.2699 -0.2199,0.4 -0.7699,0.65 -0.6203,0.2687 -1.1391,0.6488 -1.1391,1.309 0,0.5 0.4098,1.0988 1.3688,1.0988 0.559,0 0.9793,-0.1801 1.18,-0.309 0.0891,-0.0609 0.1391,-0.191 0.0801,-0.2898 l -0.1808,-0.3403 c -0.05,-0.0898 -0.1801,-0.1199 -0.2602,-0.0797 0,0 -0.4391,0.2098 -0.8191,0.2098 -0.3399,0 -0.45,-0.15 -0.45,-0.3 0,-0.2598 0.25,-0.3699 0.639,-0.5398 0.7313,-0.32 1.3301,-0.6289 1.3301,-1.3789 0,-0.6192 -0.5891,-1.1692 -1.4789,-1.1692 -0.6699,0 -1.109,0.2391 -1.3191,0.409 -0.0598,0.0398 -0.1,0.1301 -0.0598,0.2102" /></g></svg>