<?xml version="1.0" encoding="UTF-8" standalone="no"?>
<!-- Created with Inkscape (http://www.inkscape.org/) -->

<svg
   xmlns:dc="http://purl.org/dc/elements/1.1/"
   xmlns:cc="http://creativecommons.org/ns#"
   xmlns:rdf="http://www.w3.org/1999/02/22-rdf-syntax-ns#"
   xmlns:svg="http://www.w3.org/2000/svg"
   xmlns="http://www.w3.org/2000/svg"
   xmlns:sodipodi="http://sodipodi.sourceforge.net/DTD/sodipodi-0.dtd"
   xmlns:inkscape="http://www.inkscape.org/namespaces/inkscape"
   version="1.1"
   id="svg2"
   xml:space="preserve"
   width="153.66667"
   height="84"
   viewBox="0 0 153.66667 84"
   sodipodi:docname="iSIS_pantone.svg"
   inkscape:version="0.92.2 5c3e80d, 2017-08-06"><metadata
     id="metadata8"><rdf:RDF><cc:Work
         rdf:about=""><dc:format>image/svg+xml</dc:format><dc:type
           rdf:resource="http://purl.org/dc/dcmitype/StillImage" /><dc:title></dc:title></cc:Work></rdf:RDF></metadata><defs
     id="defs6"><clipPath
       clipPathUnits="userSpaceOnUse"
       id="clipPath22"><path
         d="M 0,63 H 115.25 V 0 H 0 Z"
         id="path20"
         inkscape:connector-curvature="0" /></clipPath></defs><sodipodi:namedview
     pagecolor="#ffffff"
     bordercolor="#666666"
     borderopacity="1"
     objecttolerance="10"
     gridtolerance="10"
     guidetolerance="10"
     inkscape:pageopacity="0"
     inkscape:pageshadow="2"
     inkscape:window-width="796"
     inkscape:window-height="480"
     id="namedview4"
     showgrid="false"
     inkscape:zoom="2.7136659"
     inkscape:cx="76.833336"
     inkscape:cy="42"
     inkscape:window-x="0"
     inkscape:window-y="0"
     inkscape:window-maximized="0"
     inkscape:current-layer="g10" /><g
     id="g10"
     inkscape:groupmode="layer"
     inkscape:label="iSIS_pantone"
     transform="matrix(1.3333333,0,0,-1.3333333,0,84)"><g
       id="g12"
       transform="translate(42.0527,35.2715)"><path
         d="M 0,0 H 33.273"
         style="fill:none;stroke:#0b6fae;stroke-width:1;stroke-linecap:butt;stroke-linejoin:miter;stroke-miterlimit:4;stroke-dasharray:none;stroke-opacity:1"
         id="path14"
         inkscape:connector-curvature="0" /></g><g
       id="g16"><g
         id="g18"
         clip-path="url(#clipPath22)"><g
           id="g24"
           transform="translate(42.3047,49.4673)"><path
             d="M 0,0 C 0,0.18 0.162,0.342 0.342,0.342 H 1.369 C 1.549,0.342 1.711,0.18 1.711,0 V -6.519 C 1.711,-6.698 1.549,-6.86 1.369,-6.86 H 0.342 C 0.162,-6.86 0,-6.698 0,-6.519 Z m -0.197,4.321 c 0,0.594 0.449,1.063 1.025,1.063 0.594,0 1.063,-0.469 1.063,-1.063 0,-0.576 -0.469,-1.045 -1.063,-1.045 -0.576,0 -1.025,0.469 -1.025,1.045"
             style="fill:#0b6fae;fill-opacity:1;fill-rule:nonzero;stroke:none"
             id="path26"
             inkscape:connector-curvature="0" /></g><g
           id="g28"
           transform="translate(48.0293,44.4253)"><path
             d="M 0,0 C 0.162,0.234 0.305,0.504 0.467,0.738 0.629,0.973 0.881,1.045 1.08,0.883 1.188,0.792 2.574,-0.36 3.961,-0.36 c 1.242,0 2.033,0.756 2.033,1.674 0,1.081 -0.935,1.765 -2.719,2.503 C 1.439,4.592 0,5.546 0,7.635 c 0,1.404 1.08,3.331 3.943,3.331 1.799,0 3.151,-0.937 3.33,-1.063 C 7.418,9.813 7.563,9.561 7.381,9.291 7.238,9.075 7.076,8.823 6.932,8.606 6.787,8.373 6.553,8.265 6.301,8.427 6.176,8.499 4.914,9.327 3.871,9.327 2.357,9.327 1.836,8.373 1.836,7.706 1.836,6.68 2.629,6.05 4.123,5.438 6.211,4.592 7.994,3.602 7.994,1.404 c 0,-1.872 -1.676,-3.402 -4.015,-3.402 -2.198,0 -3.584,1.152 -3.872,1.422 C -0.055,-0.432 -0.182,-0.306 0,0"
             style="fill:#0b6fae;fill-opacity:1;fill-rule:nonzero;stroke:none"
             id="path30"
             inkscape:connector-curvature="0" /></g><g
           id="g32"
           transform="translate(60.6641,54.8687)"><path
             d="M 0,0 C 0,0.18 0.162,0.342 0.344,0.342 H 1.531 C 1.711,0.342 1.873,0.18 1.873,0 v -11.92 c 0,-0.18 -0.162,-0.342 -0.342,-0.342 H 0.344 C 0.162,-12.262 0,-12.1 0,-11.92 Z"
             style="fill:#0b6fae;fill-opacity:1;fill-rule:nonzero;stroke:none"
             id="path34"
             inkscape:connector-curvature="0" /></g><g
           id="g36"
           transform="translate(67.3789,44.4253)"><path
             d="M 0,0 C 0.162,0.234 0.307,0.504 0.469,0.738 0.631,0.973 0.883,1.045 1.08,0.883 1.189,0.792 2.574,-0.36 3.961,-0.36 c 1.242,0 2.035,0.756 2.035,1.674 0,1.081 -0.935,1.765 -2.719,2.503 C 1.441,4.592 0,5.546 0,7.635 c 0,1.404 1.08,3.331 3.943,3.331 1.801,0 3.151,-0.937 3.332,-1.063 C 7.418,9.813 7.563,9.561 7.383,9.291 7.238,9.075 7.076,8.823 6.932,8.606 6.789,8.373 6.555,8.265 6.303,8.427 6.176,8.499 4.916,9.327 3.871,9.327 2.359,9.327 1.836,8.373 1.836,7.706 1.836,6.68 2.629,6.05 4.123,5.438 6.213,4.592 7.994,3.602 7.994,1.404 c 0,-1.872 -1.674,-3.402 -4.015,-3.402 -2.196,0 -3.583,1.152 -3.872,1.422 C -0.055,-0.432 -0.18,-0.306 0,0"
             style="fill:#0b6fae;fill-opacity:1;fill-rule:nonzero;stroke:none"
             id="path38"
             inkscape:connector-curvature="0" /></g><g
           id="g40"
           transform="translate(14.0317,28.4136)"><path
             d="M 0,0 C 0,0.1 0.09,0.189 0.189,0.189 H 0.85 C 0.949,0.189 1.039,0.1 1.039,0 v -6.617 c 0,-0.1 -0.09,-0.19 -0.189,-0.19 H 0.189 C 0.09,-6.807 0,-6.717 0,-6.617 Z"
             style="fill:#231f20;fill-opacity:1;fill-rule:nonzero;stroke:none"
             id="path42"
             inkscape:connector-curvature="0" /></g><g
           id="g44"
           transform="translate(16.6616,25.4146)"><path
             d="M 0,0 C 0,0.101 0.09,0.19 0.19,0.19 H 0.479 C 0.56,0.19 0.62,0.141 0.64,0.07 l 0.12,-0.34 c 0.07,0.081 0.599,0.56 1.399,0.56 1.219,0 1.669,-0.859 1.669,-1.898 v -2.01 c 0,-0.1 -0.09,-0.19 -0.189,-0.19 H 3.068 c -0.109,0 -0.189,0.09 -0.189,0.19 v 2.049 c 0,0.64 -0.311,0.99 -0.83,0.99 -0.629,0 -1.06,-0.46 -1.11,-0.6 v -2.439 c 0,-0.13 -0.059,-0.19 -0.229,-0.19 H 0.19 c -0.1,0 -0.19,0.09 -0.19,0.19 z"
             style="fill:#231f20;fill-opacity:1;fill-rule:nonzero;stroke:none"
             id="path46"
             inkscape:connector-curvature="0" /></g><g
           id="g48"
           transform="translate(21.6118,22.1265)"><path
             d="m 0,0 0.21,0.39 c 0.039,0.08 0.149,0.11 0.249,0.049 0,0 0.44,-0.259 0.93,-0.259 0.299,0 0.49,0.12 0.49,0.34 0,0.27 -0.22,0.4 -0.77,0.65 -0.62,0.269 -1.139,0.649 -1.139,1.309 0,0.5 0.41,1.099 1.369,1.099 0.559,0 0.979,-0.18 1.18,-0.309 0.089,-0.061 0.139,-0.191 0.08,-0.29 L 2.418,2.639 c -0.05,-0.09 -0.18,-0.12 -0.26,-0.08 0,0 -0.439,0.21 -0.819,0.21 -0.34,0 -0.45,-0.15 -0.45,-0.3 0,-0.26 0.25,-0.37 0.639,-0.54 C 2.259,1.609 2.858,1.3 2.858,0.55 2.858,-0.069 2.269,-0.619 1.379,-0.619 0.709,-0.619 0.27,-0.38 0.06,-0.21 0,-0.17 -0.04,-0.08 0,0"
             style="fill:#231f20;fill-opacity:1;fill-rule:nonzero;stroke:none"
             id="path50"
             inkscape:connector-curvature="0" /></g><g
           id="g52"
           transform="translate(25.8013,24.7749)"><path
             d="m 0,0 h -0.42 c -0.109,0 -0.189,0.09 -0.189,0.19 v 0.45 c 0,0.11 0.08,0.19 0.189,0.19 H 0 v 1.109 c 0,0.1 0.09,0.19 0.19,0.19 l 0.57,0.01 c 0.099,0 0.179,-0.09 0.179,-0.19 V 0.83 h 1.02 c 0.11,0 0.19,-0.08 0.19,-0.19 V 0.19 C 2.149,0.09 2.069,0 1.959,0 h -1.02 v -1.979 c 0,-0.339 0.13,-0.399 0.321,-0.399 0.21,0 0.489,0.119 0.609,0.18 0.13,0.059 0.191,0 0.231,-0.09 l 0.179,-0.441 c 0.05,-0.109 0.01,-0.189 -0.09,-0.239 -0.1,-0.06 -0.69,-0.3 -1.169,-0.3 -0.79,0 -1.02,0.48 -1.02,1.19 z"
             style="fill:#231f20;fill-opacity:1;fill-rule:nonzero;stroke:none"
             id="path54"
             inkscape:connector-curvature="0" /></g><g
           id="g56"
           transform="translate(29.1118,25.4146)"><path
             d="M 0,0 C 0,0.101 0.09,0.19 0.19,0.19 H 0.76 C 0.859,0.19 0.95,0.101 0.95,0 v -3.618 c 0,-0.1 -0.091,-0.19 -0.19,-0.19 H 0.19 c -0.1,0 -0.19,0.09 -0.19,0.19 z m -0.109,2.399 c 0,0.33 0.25,0.589 0.569,0.589 0.33,0 0.59,-0.259 0.59,-0.589 0,-0.32 -0.26,-0.58 -0.59,-0.58 -0.319,0 -0.569,0.26 -0.569,0.58"
             style="fill:#231f20;fill-opacity:1;fill-rule:nonzero;stroke:none"
             id="path58"
             inkscape:connector-curvature="0" /></g><g
           id="g60"
           transform="translate(31.731,24.7749)"><path
             d="m 0,0 h -0.42 c -0.109,0 -0.189,0.09 -0.189,0.19 v 0.45 c 0,0.11 0.08,0.19 0.189,0.19 H 0 v 1.109 c 0,0.1 0.09,0.19 0.19,0.19 l 0.57,0.01 c 0.099,0 0.179,-0.09 0.179,-0.19 V 0.83 h 1.02 c 0.11,0 0.19,-0.08 0.19,-0.19 V 0.19 C 2.149,0.09 2.069,0 1.959,0 h -1.02 v -1.979 c 0,-0.339 0.13,-0.399 0.321,-0.399 0.21,0 0.489,0.119 0.609,0.18 0.13,0.059 0.191,0 0.231,-0.09 l 0.179,-0.441 c 0.05,-0.109 0.01,-0.189 -0.09,-0.239 -0.1,-0.06 -0.69,-0.3 -1.169,-0.3 -0.79,0 -1.02,0.48 -1.02,1.19 z"
             style="fill:#231f20;fill-opacity:1;fill-rule:nonzero;stroke:none"
             id="path62"
             inkscape:connector-curvature="0" /></g><g
           id="g64"
           transform="translate(34.9819,25.4146)"><path
             d="M 0,0 C 0,0.101 0.09,0.19 0.189,0.19 H 0.76 C 0.859,0.19 0.949,0.101 0.949,0 v -2.049 c 0,-0.649 0.31,-0.999 0.82,-0.999 0.589,0 0.96,0.48 0.99,0.659 V 0 c 0,0.16 0.079,0.19 0.22,0.19 h 0.519 c 0.1,0 0.19,-0.089 0.19,-0.19 v -3.618 c 0,-0.1 -0.09,-0.19 -0.19,-0.19 h -0.28 c -0.1,0 -0.15,0.071 -0.18,0.161 l -0.1,0.29 C 2.849,-3.438 2.429,-3.907 1.619,-3.907 0.42,-3.907 0,-3.058 0,-2.019 Z"
             style="fill:#231f20;fill-opacity:1;fill-rule:nonzero;stroke:none"
             id="path66"
             inkscape:connector-curvature="0" /></g><g
           id="g68"
           transform="translate(40.3398,24.7749)"><path
             d="m 0,0 h -0.42 c -0.109,0 -0.189,0.09 -0.189,0.19 v 0.45 c 0,0.11 0.08,0.19 0.189,0.19 H 0 v 1.109 c 0,0.1 0.09,0.19 0.191,0.19 l 0.569,0.01 c 0.099,0 0.179,-0.09 0.179,-0.19 V 0.83 h 1.02 C 2.07,0.83 2.15,0.75 2.15,0.64 V 0.19 C 2.15,0.09 2.07,0 1.959,0 h -1.02 v -1.979 c 0,-0.339 0.131,-0.399 0.321,-0.399 0.211,0 0.49,0.119 0.609,0.18 0.131,0.059 0.192,0 0.231,-0.09 L 2.279,-2.729 C 2.33,-2.838 2.289,-2.918 2.189,-2.968 2.09,-3.028 1.5,-3.268 1.02,-3.268 0.23,-3.268 0,-2.788 0,-2.078 Z"
             style="fill:#231f20;fill-opacity:1;fill-rule:nonzero;stroke:none"
             id="path70"
             inkscape:connector-curvature="0" /></g><g
           id="g72"
           transform="translate(46.2695,24.0454)"><path
             d="M 0,0 C -0.029,0.479 -0.43,0.89 -0.92,0.89 -1.459,0.89 -1.879,0.5 -1.939,0 Z M -0.91,1.659 C 0.131,1.659 0.93,0.88 0.93,-0.189 0.93,-0.26 0.92,-0.39 0.91,-0.46 0.9,-0.56 0.82,-0.63 0.73,-0.63 h -2.718 c 0.029,-0.539 0.5,-1.069 1.148,-1.069 0.36,0 0.69,0.16 0.891,0.29 0.119,0.07 0.189,0.11 0.269,0.01 l 0.28,-0.38 c 0.07,-0.079 0.099,-0.159 -0.02,-0.26 -0.291,-0.249 -0.81,-0.499 -1.478,-0.499 -1.211,0 -2.01,0.949 -2.01,2.099 0,1.128 0.799,2.098 1.998,2.098"
             style="fill:#231f20;fill-opacity:1;fill-rule:nonzero;stroke:none"
             id="path74"
             inkscape:connector-curvature="0" /></g><g
           id="g76"
           transform="translate(52.3008,22.3667)"><path
             d="m 0,0 c 0.629,0 1.129,0.56 1.129,1.249 0,0.67 -0.5,1.22 -1.129,1.22 -0.631,0 -1.131,-0.55 -1.131,-1.22 C -1.131,0.56 -0.631,0 0,0 M 0,3.338 C 1.119,3.338 2.018,2.379 2.018,1.249 2.018,0.1 1.119,-0.859 0,-0.859 c -1.121,0 -2.02,0.959 -2.02,2.108 0,1.13 0.899,2.089 2.02,2.089"
             style="fill:#231f20;fill-opacity:1;fill-rule:nonzero;stroke:none"
             id="path78"
             inkscape:connector-curvature="0" /></g><g
           id="g80"
           transform="translate(55.7422,24.7749)"><path
             d="M 0,0 H -0.471 C -0.58,0 -0.66,0.09 -0.66,0.19 v 0.45 c 0,0.11 0.08,0.19 0.189,0.19 L 0,0.83 v 1.239 c 0,1.24 0.738,1.859 1.697,1.859 0.541,0 0.961,-0.24 1.141,-0.4 0.07,-0.059 0.08,-0.16 0.039,-0.229 L 2.627,2.849 C 2.578,2.759 2.479,2.749 2.377,2.818 2.248,2.908 1.957,3.059 1.719,3.059 c -0.44,0 -0.75,-0.32 -0.75,-0.99 V 0.83 h 1.08 c 0.109,0 0.189,-0.08 0.189,-0.19 V 0.19 C 2.238,0.09 2.158,0 2.049,0 h -1.08 v -2.979 c 0,-0.099 -0.09,-0.189 -0.19,-0.189 H 0.189 C 0.09,-3.168 0,-3.078 0,-2.979 Z"
             style="fill:#231f20;fill-opacity:1;fill-rule:nonzero;stroke:none"
             id="path82"
             inkscape:connector-curvature="0" /></g><g
           id="g84"
           transform="translate(61.0703,22.6167)"><path
             d="m 0,0 c 0.09,0.13 0.17,0.279 0.26,0.409 0.09,0.13 0.23,0.17 0.34,0.08 0.06,-0.05 0.83,-0.689 1.599,-0.689 0.69,0 1.129,0.42 1.129,0.929 0,0.6 -0.519,0.98 -1.508,1.389 C 0.801,2.548 0,3.078 0,4.237 c 0,0.78 0.6,1.849 2.189,1.849 1,0 1.75,-0.52 1.85,-0.589 0.08,-0.051 0.16,-0.19 0.059,-0.34 -0.08,-0.12 -0.17,-0.26 -0.25,-0.38 -0.078,-0.13 -0.209,-0.19 -0.35,-0.1 -0.068,0.04 -0.769,0.5 -1.348,0.5 -0.839,0 -1.13,-0.53 -1.13,-0.9 0,-0.569 0.439,-0.92 1.269,-1.259 1.16,-0.47 2.149,-1.019 2.149,-2.239 0,-1.039 -0.93,-1.888 -2.229,-1.888 -1.219,0 -1.988,0.639 -2.148,0.789 C -0.029,-0.24 -0.1,-0.17 0,0"
             style="fill:#231f20;fill-opacity:1;fill-rule:nonzero;stroke:none"
             id="path86"
             inkscape:connector-curvature="0" /></g><g
           id="g88"
           transform="translate(66.5801,25.4146)"><path
             d="m 0,0 c 0,0.101 0.09,0.19 0.191,0.19 h 0.28 c 0.09,0 0.14,-0.049 0.17,-0.12 L 0.75,-0.27 c 0.09,0.09 0.551,0.56 1.32,0.56 0.578,0 0.998,-0.229 1.289,-0.64 0.11,0.111 0.69,0.64 1.45,0.64 1.218,0 1.648,-0.859 1.648,-1.898 v -2.01 c 0,-0.1 -0.08,-0.19 -0.189,-0.19 H 5.707 c -0.109,0 -0.189,0.09 -0.189,0.19 v 2.049 c 0,0.63 -0.289,0.99 -0.83,0.99 -0.61,0 -0.959,-0.43 -1.03,-0.49 0.02,-0.09 0.031,-0.28 0.031,-0.48 v -2.069 c 0,-0.1 -0.089,-0.19 -0.191,-0.19 H 2.969 c -0.11,0 -0.19,0.09 -0.19,0.19 v 2.049 c 0,0.64 -0.289,0.99 -0.849,0.99 -0.6,0 -0.94,-0.47 -0.991,-0.6 v -2.439 c 0,-0.1 -0.089,-0.19 -0.189,-0.19 H 0.191 C 0.09,-3.808 0,-3.718 0,-3.618 Z"
             style="fill:#231f20;fill-opacity:1;fill-rule:nonzero;stroke:none"
             id="path90"
             inkscape:connector-curvature="0" /></g><g
           id="g92"
           transform="translate(75.5898,22.2163)"><path
             d="M 0,0 C 0.4,0 0.779,0.3 0.9,0.5 V 1.14 C 0.84,1.18 0.561,1.3 0.201,1.3 -0.279,1.3 -0.609,1.05 -0.609,0.64 -0.609,0.28 -0.369,0 0,0 m 0.121,1.919 c 0.42,0 0.789,-0.12 0.789,-0.12 0.01,0.63 -0.109,0.88 -0.619,0.88 -0.461,0 -0.91,-0.12 -1.119,-0.18 -0.121,-0.03 -0.192,0.05 -0.221,0.16 l -0.08,0.369 c -0.029,0.13 0.041,0.201 0.131,0.231 0.068,0.029 0.639,0.229 1.379,0.229 1.279,0 1.398,-0.779 1.398,-1.779 V -0.42 c 0,-0.1 -0.09,-0.189 -0.189,-0.189 H 1.311 c -0.09,0 -0.131,0.04 -0.17,0.139 l -0.1,0.271 c -0.221,-0.21 -0.611,-0.51 -1.23,-0.51 -0.75,0 -1.29,0.51 -1.29,1.339 0,0.729 0.581,1.289 1.6,1.289"
             style="fill:#231f20;fill-opacity:1;fill-rule:nonzero;stroke:none"
             id="path94"
             inkscape:connector-curvature="0" /></g><g
           id="g96"
           transform="translate(78.7402,25.4146)"><path
             d="m 0,0 c 0,0.101 0.09,0.19 0.189,0.19 h 0.29 c 0.07,0 0.15,-0.06 0.169,-0.14 L 0.76,-0.29 c 0.07,0.101 0.439,0.58 1.168,0.58 0.381,0 0.84,-0.1 0.73,-0.37 l -0.24,-0.489 c -0.049,-0.111 -0.15,-0.13 -0.24,-0.09 -0.059,0.03 -0.209,0.069 -0.34,0.069 -0.578,0 -0.859,-0.419 -0.899,-0.489 v -2.539 c 0,-0.17 -0.109,-0.19 -0.269,-0.19 H 0.189 C 0.09,-3.808 0,-3.718 0,-3.618 Z"
             style="fill:#231f20;fill-opacity:1;fill-rule:nonzero;stroke:none"
             id="path98"
             inkscape:connector-curvature="0" /></g><g
           id="g100"
           transform="translate(82.4707,24.7749)"><path
             d="m 0,0 h -0.42 c -0.109,0 -0.189,0.09 -0.189,0.19 v 0.45 c 0,0.11 0.08,0.19 0.189,0.19 H 0 v 1.109 c 0,0.1 0.09,0.19 0.189,0.19 l 0.571,0.01 c 0.099,0 0.179,-0.09 0.179,-0.19 V 0.83 h 1.02 c 0.109,0 0.189,-0.08 0.189,-0.19 V 0.19 C 2.148,0.09 2.068,0 1.959,0 h -1.02 v -1.979 c 0,-0.339 0.129,-0.399 0.321,-0.399 0.209,0 0.488,0.119 0.609,0.18 0.129,0.059 0.19,0 0.231,-0.09 l 0.179,-0.441 c 0.049,-0.109 0.01,-0.189 -0.09,-0.239 -0.101,-0.06 -0.691,-0.3 -1.169,-0.3 -0.79,0 -1.02,0.48 -1.02,1.19 z"
             style="fill:#231f20;fill-opacity:1;fill-rule:nonzero;stroke:none"
             id="path102"
             inkscape:connector-curvature="0" /></g><g
           id="g104"
           transform="translate(89.2793,22.2163)"><path
             d="M 0,0 C 0.4,0 0.779,0.3 0.9,0.5 V 1.14 C 0.84,1.18 0.561,1.3 0.201,1.3 -0.279,1.3 -0.609,1.05 -0.609,0.64 -0.609,0.28 -0.369,0 0,0 m 0.121,1.919 c 0.42,0 0.789,-0.12 0.789,-0.12 0.01,0.63 -0.109,0.88 -0.619,0.88 -0.461,0 -0.91,-0.12 -1.119,-0.18 -0.121,-0.03 -0.192,0.05 -0.221,0.16 l -0.08,0.369 c -0.029,0.13 0.041,0.201 0.131,0.231 0.068,0.029 0.639,0.229 1.379,0.229 1.279,0 1.398,-0.779 1.398,-1.779 V -0.42 c 0,-0.1 -0.09,-0.189 -0.189,-0.189 H 1.311 c -0.09,0 -0.131,0.04 -0.17,0.139 l -0.1,0.271 c -0.221,-0.21 -0.611,-0.51 -1.23,-0.51 -0.75,0 -1.29,0.51 -1.29,1.339 0,0.729 0.581,1.289 1.6,1.289"
             style="fill:#231f20;fill-opacity:1;fill-rule:nonzero;stroke:none"
             id="path106"
             inkscape:connector-curvature="0" /></g><g
           id="g108"
           transform="translate(92.4297,25.4146)"><path
             d="M 0,0 C 0,0.101 0.09,0.19 0.191,0.19 H 0.48 c 0.081,0 0.141,-0.049 0.161,-0.12 L 0.76,-0.27 c 0.07,0.081 0.599,0.56 1.4,0.56 1.219,0 1.668,-0.859 1.668,-1.898 v -2.01 c 0,-0.1 -0.09,-0.19 -0.189,-0.19 H 3.068 c -0.109,0 -0.189,0.09 -0.189,0.19 v 2.049 c 0,0.64 -0.311,0.99 -0.83,0.99 -0.629,0 -1.059,-0.46 -1.11,-0.6 v -2.439 c 0,-0.13 -0.058,-0.19 -0.228,-0.19 H 0.191 C 0.09,-3.808 0,-3.718 0,-3.618 Z"
             style="fill:#231f20;fill-opacity:1;fill-rule:nonzero;stroke:none"
             id="path110"
             inkscape:connector-curvature="0" /></g><g
           id="g112"
           transform="translate(99.3184,22.3667)"><path
             d="m 0,0 c 0.609,0 0.9,0.489 0.949,0.6 v 1.629 c 0,0 -0.349,0.24 -0.869,0.24 -0.67,0 -1.139,-0.55 -1.139,-1.23 C -1.059,0.569 -0.639,0 0,0 m -0.02,3.338 c 0.51,0 0.87,-0.19 0.959,-0.22 v 2.929 c 0,0.099 0.09,0.189 0.192,0.189 H 1.709 C 1.811,6.236 1.9,6.146 1.9,6.047 V -0.57 c 0,-0.1 -0.089,-0.19 -0.191,-0.19 H 1.41 c -0.09,0 -0.15,0.071 -0.18,0.17 L 1.15,-0.3 c 0,0 -0.48,-0.559 -1.269,-0.559 -1.061,0 -1.869,0.949 -1.869,2.098 0,1.169 0.859,2.099 1.968,2.099"
             style="fill:#231f20;fill-opacity:1;fill-rule:nonzero;stroke:none"
             id="path114"
             inkscape:connector-curvature="0" /></g><g
           id="g116"
           transform="translate(24.9858,11.6167)"><path
             d="m 0,0 c 0.09,0.13 0.17,0.279 0.26,0.409 0.09,0.13 0.23,0.17 0.34,0.08 0.06,-0.05 0.83,-0.689 1.599,-0.689 0.69,0 1.129,0.42 1.129,0.929 0,0.6 -0.519,0.98 -1.509,1.389 C 0.8,2.548 0,3.078 0,4.237 c 0,0.78 0.6,1.849 2.189,1.849 0.999,0 1.749,-0.52 1.849,-0.589 0.08,-0.051 0.16,-0.19 0.06,-0.34 -0.08,-0.12 -0.17,-0.26 -0.25,-0.38 -0.079,-0.13 -0.209,-0.19 -0.35,-0.1 -0.069,0.04 -0.769,0.5 -1.349,0.5 -0.839,0 -1.129,-0.53 -1.129,-0.9 0,-0.569 0.439,-0.92 1.269,-1.259 1.159,-0.47 2.149,-1.019 2.149,-2.239 0,-1.039 -0.93,-1.888 -2.229,-1.888 -1.22,0 -1.989,0.639 -2.148,0.789 C -0.03,-0.24 -0.1,-0.17 0,0"
             style="fill:#231f20;fill-opacity:1;fill-rule:nonzero;stroke:none"
             id="path118"
             inkscape:connector-curvature="0" /></g><g
           id="g120"
           transform="translate(33.2153,13.0454)"><path
             d="M 0,0 C -0.03,0.479 -0.43,0.89 -0.92,0.89 -1.46,0.89 -1.879,0.5 -1.939,0 Z m -0.91,1.659 c 1.04,0 1.839,-0.779 1.839,-1.848 0,-0.071 -0.01,-0.201 -0.02,-0.271 -0.01,-0.1 -0.09,-0.17 -0.18,-0.17 h -2.718 c 0.03,-0.539 0.5,-1.069 1.149,-1.069 0.36,0 0.69,0.16 0.89,0.29 0.12,0.07 0.189,0.11 0.269,0.01 L 0.6,-1.779 c 0.069,-0.079 0.099,-0.159 -0.021,-0.26 -0.29,-0.249 -0.809,-0.499 -1.478,-0.499 -1.21,0 -2.01,0.949 -2.01,2.099 0,1.128 0.8,2.098 1.999,2.098"
             style="fill:#231f20;fill-opacity:1;fill-rule:nonzero;stroke:none"
             id="path122"
             inkscape:connector-curvature="0" /></g><g
           id="g124"
           transform="translate(37.0142,14.7046)"><path
             d="M 0,0 C 0.61,0 1.08,-0.25 1.449,-0.71 1.52,-0.8 1.5,-0.919 1.409,-0.989 l -0.329,-0.3 c -0.12,-0.11 -0.19,-0.03 -0.27,0.04 -0.18,0.199 -0.47,0.38 -0.799,0.38 -0.651,0 -1.16,-0.55 -1.16,-1.23 0,-0.689 0.5,-1.239 1.149,-1.239 0.51,0 0.72,0.26 0.93,0.46 0.09,0.09 0.179,0.09 0.27,0.02 l 0.27,-0.22 c 0.099,-0.08 0.139,-0.18 0.07,-0.28 -0.32,-0.51 -0.86,-0.839 -1.55,-0.839 -1.119,0 -2.089,0.889 -2.089,2.089 C -2.099,-0.93 -1.109,0 0,0"
             style="fill:#231f20;fill-opacity:1;fill-rule:nonzero;stroke:none"
             id="path126"
             inkscape:connector-curvature="0" /></g><g
           id="g128"
           transform="translate(39.6055,14.4146)"><path
             d="M 0,0 C 0,0.101 0.09,0.19 0.189,0.19 H 0.76 C 0.859,0.19 0.949,0.101 0.949,0 v -2.049 c 0,-0.649 0.311,-0.999 0.821,-0.999 0.589,0 0.959,0.48 0.99,0.659 V 0 c 0,0.16 0.078,0.19 0.219,0.19 h 0.519 c 0.1,0 0.19,-0.089 0.19,-0.19 v -3.618 c 0,-0.1 -0.09,-0.19 -0.19,-0.19 H 3.219 c -0.1,0 -0.151,0.071 -0.18,0.161 l -0.1,0.29 C 2.85,-3.438 2.43,-3.907 1.619,-3.907 0.42,-3.907 0,-3.058 0,-2.019 Z"
             style="fill:#231f20;fill-opacity:1;fill-rule:nonzero;stroke:none"
             id="path130"
             inkscape:connector-curvature="0" /></g><g
           id="g132"
           transform="translate(44.7051,14.4146)"><path
             d="M 0,0 C 0,0.101 0.09,0.19 0.191,0.19 H 0.48 c 0.071,0 0.151,-0.06 0.17,-0.14 l 0.11,-0.34 c 0.07,0.101 0.439,0.58 1.17,0.58 0.379,0 0.84,-0.1 0.73,-0.37 L 2.42,-0.569 C 2.369,-0.68 2.27,-0.699 2.18,-0.659 2.119,-0.629 1.969,-0.59 1.84,-0.59 1.26,-0.59 0.98,-1.009 0.939,-1.079 v -2.539 c 0,-0.17 -0.109,-0.19 -0.269,-0.19 H 0.191 C 0.09,-3.808 0,-3.718 0,-3.618 Z"
             style="fill:#231f20;fill-opacity:1;fill-rule:nonzero;stroke:none"
             id="path134"
             inkscape:connector-curvature="0" /></g><g
           id="g136"
           transform="translate(50.7637,13.0454)"><path
             d="M 0,0 C -0.029,0.479 -0.43,0.89 -0.92,0.89 -1.459,0.89 -1.879,0.5 -1.939,0 Z M -0.91,1.659 C 0.131,1.659 0.93,0.88 0.93,-0.189 0.93,-0.26 0.92,-0.39 0.91,-0.46 0.9,-0.56 0.82,-0.63 0.73,-0.63 h -2.718 c 0.029,-0.539 0.5,-1.069 1.148,-1.069 0.36,0 0.69,0.16 0.891,0.29 0.119,0.07 0.189,0.11 0.269,0.01 l 0.28,-0.38 c 0.07,-0.079 0.099,-0.159 -0.02,-0.26 -0.291,-0.249 -0.81,-0.499 -1.478,-0.499 -1.211,0 -2.01,0.949 -2.01,2.099 0,1.128 0.799,2.098 1.998,2.098"
             style="fill:#231f20;fill-opacity:1;fill-rule:nonzero;stroke:none"
             id="path138"
             inkscape:connector-curvature="0" /></g><g
           id="g140"
           transform="translate(54.4648,11.3667)"><path
             d="m 0,0 c 0.609,0 0.898,0.489 0.949,0.6 v 1.629 c 0,0 -0.349,0.24 -0.869,0.24 -0.67,0 -1.141,-0.55 -1.141,-1.23 C -1.061,0.569 -0.641,0 0,0 m -0.02,3.338 c 0.51,0 0.87,-0.19 0.959,-0.22 v 2.929 c 0,0.099 0.09,0.189 0.19,0.189 h 0.58 c 0.1,0 0.189,-0.09 0.189,-0.189 V -0.57 c 0,-0.1 -0.089,-0.19 -0.189,-0.19 H 1.408 c -0.09,0 -0.148,0.071 -0.179,0.17 L 1.148,-0.3 c 0,0 -0.478,-0.559 -1.269,-0.559 -1.059,0 -1.869,0.949 -1.869,2.098 0,1.169 0.861,2.099 1.97,2.099"
             style="fill:#231f20;fill-opacity:1;fill-rule:nonzero;stroke:none"
             id="path142"
             inkscape:connector-curvature="0" /></g><g
           id="g144"
           transform="translate(59.9551,11.6167)"><path
             d="m 0,0 c 0.09,0.13 0.17,0.279 0.26,0.409 0.09,0.13 0.23,0.17 0.34,0.08 0.06,-0.05 0.83,-0.689 1.599,-0.689 0.69,0 1.129,0.42 1.129,0.929 0,0.6 -0.519,0.98 -1.508,1.389 C 0.801,2.548 0,3.078 0,4.237 c 0,0.78 0.6,1.849 2.189,1.849 1,0 1.75,-0.52 1.85,-0.589 0.08,-0.051 0.16,-0.19 0.059,-0.34 -0.08,-0.12 -0.17,-0.26 -0.25,-0.38 -0.078,-0.13 -0.209,-0.19 -0.35,-0.1 -0.068,0.04 -0.769,0.5 -1.348,0.5 -0.839,0 -1.13,-0.53 -1.13,-0.9 0,-0.569 0.439,-0.92 1.269,-1.259 1.16,-0.47 2.149,-1.019 2.149,-2.239 0,-1.039 -0.93,-1.888 -2.229,-1.888 -1.219,0 -1.988,0.639 -2.148,0.789 C -0.029,-0.24 -0.1,-0.17 0,0"
             style="fill:#231f20;fill-opacity:1;fill-rule:nonzero;stroke:none"
             id="path146"
             inkscape:connector-curvature="0" /></g><g
           id="g148"
           transform="translate(64.8672,14.3452)"><path
             d="M 0,0 C -0.061,0.13 0.02,0.26 0.17,0.26 H 0.83 C 0.889,0.26 0.969,0.21 1,0.149 l 1.238,-2.658 h 0.01 L 3.447,0.149 C 3.488,0.239 3.568,0.26 3.658,0.26 H 4.229 C 4.387,0.26 4.467,0.13 4.398,0 L 1.34,-6.617 C 1.309,-6.677 1.25,-6.736 1.17,-6.736 h -0.6 c -0.15,0 -0.24,0.13 -0.17,0.269 l 1.338,2.868 z"
             style="fill:#231f20;fill-opacity:1;fill-rule:nonzero;stroke:none"
             id="path150"
             inkscape:connector-curvature="0" /></g><g
           id="g152"
           transform="translate(69.9063,11.1265)"><path
             d="m 0,0 0.211,0.39 c 0.039,0.08 0.148,0.11 0.248,0.049 0,0 0.441,-0.259 0.93,-0.259 0.3,0 0.49,0.12 0.49,0.34 0,0.27 -0.219,0.4 -0.77,0.65 -0.619,0.269 -1.138,0.649 -1.138,1.309 0,0.5 0.41,1.099 1.369,1.099 0.558,0 0.978,-0.18 1.18,-0.309 C 2.609,3.208 2.658,3.078 2.6,2.979 L 2.418,2.639 c -0.049,-0.09 -0.18,-0.12 -0.26,-0.08 0,0 -0.439,0.21 -0.818,0.21 -0.34,0 -0.451,-0.15 -0.451,-0.3 0,-0.26 0.25,-0.37 0.64,-0.54 C 2.26,1.609 2.859,1.3 2.859,0.55 2.859,-0.069 2.27,-0.619 1.379,-0.619 0.709,-0.619 0.27,-0.38 0.061,-0.21 0,-0.17 -0.039,-0.08 0,0"
             style="fill:#231f20;fill-opacity:1;fill-rule:nonzero;stroke:none"
             id="path154"
             inkscape:connector-curvature="0" /></g><g
           id="g156"
           transform="translate(74.0957,13.7749)"><path
             d="m 0,0 h -0.42 c -0.109,0 -0.189,0.09 -0.189,0.19 v 0.45 c 0,0.11 0.08,0.19 0.189,0.19 H 0 v 1.109 c 0,0.1 0.09,0.19 0.191,0.19 l 0.569,0.01 c 0.099,0 0.179,-0.09 0.179,-0.19 V 0.83 h 1.02 C 2.07,0.83 2.15,0.75 2.15,0.64 V 0.19 C 2.15,0.09 2.07,0 1.959,0 h -1.02 v -1.979 c 0,-0.339 0.131,-0.399 0.321,-0.399 0.211,0 0.49,0.119 0.609,0.18 0.131,0.059 0.192,0 0.231,-0.09 L 2.279,-2.729 C 2.33,-2.838 2.289,-2.918 2.189,-2.968 2.09,-3.028 1.5,-3.268 1.02,-3.268 0.23,-3.268 0,-2.788 0,-2.078 Z"
             style="fill:#231f20;fill-opacity:1;fill-rule:nonzero;stroke:none"
             id="path158"
             inkscape:connector-curvature="0" /></g><g
           id="g160"
           transform="translate(80.0254,13.0454)"><path
             d="M 0,0 C -0.029,0.479 -0.43,0.89 -0.92,0.89 -1.459,0.89 -1.879,0.5 -1.939,0 Z M -0.91,1.659 C 0.131,1.659 0.93,0.88 0.93,-0.189 0.93,-0.26 0.92,-0.39 0.91,-0.46 0.9,-0.56 0.82,-0.63 0.73,-0.63 h -2.718 c 0.029,-0.539 0.5,-1.069 1.148,-1.069 0.36,0 0.69,0.16 0.891,0.29 0.119,0.07 0.189,0.11 0.269,0.01 l 0.28,-0.38 c 0.07,-0.079 0.099,-0.159 -0.02,-0.26 -0.291,-0.249 -0.81,-0.499 -1.478,-0.499 -1.211,0 -2.01,0.949 -2.01,2.099 0,1.128 0.799,2.098 1.998,2.098"
             style="fill:#231f20;fill-opacity:1;fill-rule:nonzero;stroke:none"
             id="path162"
             inkscape:connector-curvature="0" /></g><g
           id="g164"
           transform="translate(82.0254,14.4146)"><path
             d="m 0,0 c 0,0.101 0.09,0.19 0.191,0.19 h 0.28 c 0.09,0 0.14,-0.049 0.17,-0.12 L 0.75,-0.27 c 0.09,0.09 0.551,0.56 1.32,0.56 0.578,0 0.998,-0.229 1.289,-0.64 0.11,0.111 0.69,0.64 1.45,0.64 1.218,0 1.648,-0.859 1.648,-1.898 v -2.01 c 0,-0.1 -0.08,-0.19 -0.189,-0.19 H 5.707 c -0.109,0 -0.189,0.09 -0.189,0.19 v 2.049 c 0,0.63 -0.289,0.99 -0.83,0.99 -0.61,0 -0.959,-0.43 -1.03,-0.49 0.02,-0.09 0.031,-0.28 0.031,-0.48 v -2.069 c 0,-0.1 -0.089,-0.19 -0.191,-0.19 H 2.969 c -0.11,0 -0.19,0.09 -0.19,0.19 v 2.049 c 0,0.64 -0.289,0.99 -0.849,0.99 -0.6,0 -0.94,-0.47 -0.991,-0.6 v -2.439 c 0,-0.1 -0.089,-0.19 -0.189,-0.19 H 0.191 C 0.09,-3.808 0,-3.718 0,-3.618 Z"
             style="fill:#231f20;fill-opacity:1;fill-rule:nonzero;stroke:none"
             id="path166"
             inkscape:connector-curvature="0" /></g><g
           id="g168"
           transform="translate(89.6074,11.1265)"><path
             d="m 0,0 0.209,0.39 c 0.039,0.08 0.15,0.11 0.25,0.049 0,0 0.439,-0.259 0.93,-0.259 0.299,0 0.49,0.12 0.49,0.34 0,0.27 -0.221,0.4 -0.77,0.65 -0.621,0.269 -1.14,0.649 -1.14,1.309 0,0.5 0.41,1.099 1.369,1.099 0.56,0 0.98,-0.18 1.18,-0.309 0.089,-0.061 0.14,-0.191 0.08,-0.29 l -0.18,-0.34 c -0.051,-0.09 -0.18,-0.12 -0.26,-0.08 0,0 -0.439,0.21 -0.82,0.21 -0.34,0 -0.449,-0.15 -0.449,-0.3 0,-0.26 0.25,-0.37 0.638,-0.54 0.731,-0.32 1.33,-0.629 1.33,-1.379 0,-0.619 -0.589,-1.169 -1.478,-1.169 -0.67,0 -1.109,0.239 -1.32,0.409 C 0,-0.17 -0.041,-0.08 0,0"
             style="fill:#231f20;fill-opacity:1;fill-rule:nonzero;stroke:none"
             id="path170"
             inkscape:connector-curvature="0" /></g></g></g></g></svg>